<svg width="22" height="22" viewBox="0 0 22 22" fill="none" xmlns="http://www.w3.org/2000/svg">
<rect width="21.913" height="19.6409" rx="8" transform="matrix(-1 0 0 1 21.9131 1.39258)" fill="#D9D9D9"/>
<path d="M7.57668 5.15727L10.9767 14.1973H11.0167L14.4367 5.15727H18.3967V6.77727L17.7367 6.83727C17.3367 6.87728 17.1433 7.11061 17.1567 7.53728L17.6567 16.6973L18.8967 16.7573V18.4573H14.0767V16.8373L14.7967 16.7773C15.1567 16.7506 15.33 16.5773 15.3167 16.2573L14.9367 9.19727H14.8967L11.8167 17.1773H9.91668L6.87668 9.27727H6.83668L6.43668 16.6973L7.73668 16.7573V18.4573H3.01668V16.8373L3.73668 16.7773C4.04334 16.7506 4.21001 16.5706 4.23668 16.2373L4.77668 6.93727L3.55668 6.85727V5.15727H7.57668Z" fill="black"/>
</svg>
